<svg xmlns="http://www.w3.org/2000/svg" xmlns:xlink="http://www.w3.org/1999/xlink" width="90" height="61.569" viewBox="0 0 90 61.569"><defs><filter id="a" x="12.38" y="15.569" width="62" height="46" filterUnits="userSpaceOnUse"><feOffset dy="3" input="SourceAlpha"/><feGaussianBlur stdDeviation="3" result="b"/><feFlood/><feComposite operator="in" in2="b"/><feComposite in="SourceGraphic"/></filter></defs><g transform="translate(-1093.24 -527.349)"><g transform="translate(1093.24 527.349)"><path d="M285.646,544.679h63.3v-3.866c0-.807-.96-1.6-2.635-2.181l-.017-.006c-1.131-.4-8.358-3.28-12.267-3.193a13.32,13.32,0,0,0-5.255,1.054c-4.425,2.035-10.238,2.787-13.31,2.2a99.86,99.86,0,0,0-12.883-1.343c-3.845.054-3.856.7-7.8,2.8-1.507.8-2.071.9-9.13,1.542Z" transform="translate(-272.537 -501.192)" fill="#f2f2f2"/><path d="M184.922,527a4.84,4.84,0,0,1,2.566-4.939,10.045,10.045,0,0,0,1.257,6.571,4.321,4.321,0,0,1,.918,2.5,1.765,1.765,0,0,1-.866,1.2,5.549,5.549,0,0,1-1.449.555l-.087.092A13.085,13.085,0,0,1,184.922,527Z" transform="translate(-182.152 -489.195)" fill="#f2f2f2"/><path d="M199.215,521.722a7.291,7.291,0,0,0-1.139,4.706,3.758,3.758,0,0,0,.251,1.1,2.449,2.449,0,0,0,.678.912,5.168,5.168,0,0,1,.793.744,1.327,1.327,0,0,1,.253,1.007,2.71,2.71,0,0,1-.5,1.1,2.663,2.663,0,0,0-.56,1.221c-.005.057-.1.033-.092-.024.079-.825.774-1.327,1.008-2.078a1.275,1.275,0,0,0-.126-1.1,4.007,4.007,0,0,0-.793-.769,2.629,2.629,0,0,1-.694-.871,3.525,3.525,0,0,1-.292-1.093,7.567,7.567,0,0,1,.114-2.441,7.074,7.074,0,0,1,1.028-2.474C199.173,521.61,199.246,521.676,199.215,521.722Z" transform="translate(-193.854 -488.819)" fill="#fff"/><path d="M188.139,551.619a1.471,1.471,0,0,1-1.174-1.238c-.007-.059.085-.059.092,0a1.362,1.362,0,0,0,1.094,1.15.045.045,0,1,1-.012.088Z" transform="translate(-183.998 -514.814)" fill="#fff"/><path d="M206.6,574.142a1.978,1.978,0,0,0,.789-1.416c.006-.057.1-.033.092.024a2.057,2.057,0,0,1-.824,1.471C206.616,574.254,206.56,574.174,206.6,574.142Z" transform="translate(-201.605 -534.825)" fill="#fff"/><path d="M201.911,537.288a.669.669,0,0,0,.648-.067c.044-.033.1.047.057.08a.749.749,0,0,1-.716.075.056.056,0,0,1-.04-.056.04.04,0,0,1,.052-.032Z" transform="translate(-197.362 -503.079)" fill="#fff"/><path d="M214.5,553.625l-.08.066a7.429,7.429,0,0,0-.987.972l-.07.082a8.053,8.053,0,0,0-1.532,2.973,8.467,8.467,0,0,0-.256,1.353,5.5,5.5,0,0,1-.363,1.874,1.324,1.324,0,0,1-.095.161l-3.364.171-.025-.01-.133.013c0-.024,0-.049,0-.073s0-.028,0-.042,0-.019,0-.027,0-.006,0-.009,0-.016,0-.024c.007-.14.015-.28.025-.42,0,0,0,0,0,0a12.471,12.471,0,0,1,.569-3.1c.01-.029.02-.06.031-.089a7.533,7.533,0,0,1,.565-1.258,6.477,6.477,0,0,1,.408-.628,5.347,5.347,0,0,1,1.4-1.314,4.875,4.875,0,0,1,3.8-.693Z" transform="translate(-202.503 -517.381)" fill="#f2f2f2"/><path d="M214.483,554.556a6.8,6.8,0,0,0-3.9,2.673,2.953,2.953,0,0,0-.455.937,1.993,1.993,0,0,0,.039,1.059,4.488,4.488,0,0,1,.244,1.008,1.053,1.053,0,0,1-.395.871,2.779,2.779,0,0,1-1.12.48,2.729,2.729,0,0,0-1.245.534c-.04.038-.106-.035-.066-.073.576-.541,1.5-.481,2.167-.876a1.042,1.042,0,0,0,.567-.863,3.454,3.454,0,0,0-.228-1.026,2.16,2.16,0,0,1-.077-1.039,2.757,2.757,0,0,1,.414-.956,6.448,6.448,0,0,1,1.6-1.673,7.122,7.122,0,0,1,2.428-1.147C214.513,554.451,214.538,554.542,214.483,554.556Z" transform="translate(-202.49 -518.268)" fill="#fff"/><path d="M235.575,563a1.272,1.272,0,0,1-.276-1.59c.03-.046.111.009.081.055a1.178,1.178,0,0,0,.26,1.479C235.686,562.991,235.621,563.047,235.575,563Z" transform="translate(-227.212 -524.71)" fill="#fff"/><path d="M231.754,594.406a2.1,2.1,0,0,0,1.566-.536c.04-.038.106.035.066.073a2.186,2.186,0,0,1-1.631.554C231.7,594.493,231.695,594.4,231.754,594.406Z" transform="translate(-224.145 -553.615)" fill="#fff"/><path d="M257.593,561.521a.825.825,0,0,0,.613.342c.059,0,.06.094,0,.091a.925.925,0,0,1-.679-.377.046.046,0,0,1,0-.064.048.048,0,0,1,.065.008Z" transform="translate(-247.298 -524.822)" fill="#fff"/><path d="M963.037,527a4.84,4.84,0,0,0-2.565-4.939,10.044,10.044,0,0,1-1.257,6.571,4.321,4.321,0,0,0-.918,2.5,1.765,1.765,0,0,0,.866,1.2,5.548,5.548,0,0,0,1.448.555l.087.092A13.091,13.091,0,0,0,963.037,527Z" transform="translate(-876.874 -489.195)" fill="#f2f2f2"/><path d="M971.9,521.722a7.291,7.291,0,0,1,1.139,4.706,3.758,3.758,0,0,1-.251,1.1,2.449,2.449,0,0,1-.678.912,5.167,5.167,0,0,0-.793.744,1.327,1.327,0,0,0-.253,1.007,2.711,2.711,0,0,0,.5,1.1,2.663,2.663,0,0,1,.56,1.221c.005.057.1.033.092-.024-.079-.825-.774-1.327-1.008-2.078a1.275,1.275,0,0,1,.126-1.1,4.007,4.007,0,0,1,.793-.769,2.629,2.629,0,0,0,.694-.871,3.531,3.531,0,0,0,.292-1.093,7.567,7.567,0,0,0-.115-2.441,7.076,7.076,0,0,0-1.028-2.474C971.945,521.61,971.872,521.676,971.9,521.722Z" transform="translate(-888.332 -488.819)" fill="#fff"/><path d="M990.782,551.619a1.471,1.471,0,0,0,1.174-1.238c.007-.059-.085-.059-.092,0a1.362,1.362,0,0,1-1.094,1.15.045.045,0,1,0,.012.088Z" transform="translate(-905.99 -514.814)" fill="#fff"/><path d="M975.177,574.142a1.978,1.978,0,0,1-.789-1.416c-.006-.057-.1-.033-.092.024a2.057,2.057,0,0,0,.824,1.471C975.165,574.254,975.221,574.174,975.177,574.142Z" transform="translate(-891.244 -534.825)" fill="#fff"/><path d="M980.963,537.288a.669.669,0,0,1-.648-.067c-.044-.033-.1.047-.057.08a.749.749,0,0,0,.716.075.056.056,0,0,0,.04-.056.04.04,0,0,0-.052-.032Z" transform="translate(-896.58 -503.079)" fill="#fff"/><path d="M914.834,553.625l.08.066a7.427,7.427,0,0,1,.987.972l.07.082a8.054,8.054,0,0,1,1.532,2.973,8.467,8.467,0,0,1,.256,1.353,5.5,5.5,0,0,0,.363,1.874,1.324,1.324,0,0,0,.095.161l3.364.171.025-.01.133.013c0-.024,0-.049,0-.073s0-.028,0-.042,0-.019,0-.027,0-.006,0-.009,0-.016,0-.024c-.007-.14-.015-.28-.025-.42,0,0,0,0,0,0a12.474,12.474,0,0,0-.569-3.1c-.01-.029-.02-.059-.031-.089a7.544,7.544,0,0,0-.565-1.258,6.488,6.488,0,0,0-.408-.628,5.348,5.348,0,0,0-1.4-1.315,4.875,4.875,0,0,0-3.8-.693Z" transform="translate(-837.893 -517.381)" fill="#f2f2f2"/><path d="M914.557,554.556a6.8,6.8,0,0,1,3.9,2.673,2.953,2.953,0,0,1,.455.937,1.993,1.993,0,0,1-.039,1.059,4.487,4.487,0,0,0-.244,1.008,1.053,1.053,0,0,0,.395.871,2.779,2.779,0,0,0,1.12.48,2.729,2.729,0,0,1,1.245.534c.04.038.106-.035.066-.073-.576-.541-1.5-.481-2.167-.876a1.043,1.043,0,0,1-.567-.863,3.454,3.454,0,0,1,.228-1.026,2.161,2.161,0,0,0,.077-1.039,2.758,2.758,0,0,0-.414-.956,6.449,6.449,0,0,0-1.6-1.673,7.122,7.122,0,0,0-2.428-1.147C914.526,554.451,914.5,554.542,914.557,554.556Z" transform="translate(-837.617 -518.268)" fill="#fff"/><path d="M949.428,563a1.271,1.271,0,0,0,.276-1.59c-.03-.046-.111.009-.081.055a1.178,1.178,0,0,1-.26,1.479C949.317,562.991,949.382,563.047,949.428,563Z" transform="translate(-868.86 -524.71)" fill="#fff"/><path d="M943.115,594.406a2.1,2.1,0,0,1-1.566-.536c-.04-.038-.106.035-.066.073a2.186,2.186,0,0,0,1.631.554C943.174,594.493,943.174,594.4,943.115,594.406Z" transform="translate(-861.792 -553.615)" fill="#fff"/><path d="M925.595,561.521a.825.825,0,0,1-.613.342c-.059,0-.06.094,0,.091a.925.925,0,0,0,.679-.377.046.046,0,0,0,0-.064A.048.048,0,0,0,925.595,561.521Z" transform="translate(-846.958 -524.822)" fill="#fff"/><rect width="0.617" height="0.206" transform="translate(5.135 27.118)" fill="#e6e6e6"/><path d="M301.772,470.415h-1.238v-.206h1.238Zm-2.476,0h-1.238v-.206H299.3Zm-2.476,0h-1.238v-.206h1.238Zm-2.476,0h-1.238v-.206h1.238Zm-2.476,0h-1.238v-.206h1.238Zm-2.476,0h-1.238v-.206h1.238Zm-2.476,0h-1.238v-.206h1.238Zm-2.476,0H283.2v-.206h1.238Zm-2.476,0h-1.238v-.206h1.238Zm-2.476,0h-1.238v-.206h1.238Zm-2.476,0h-1.238v-.206h1.238Zm-2.476,0H273.3v-.206h1.238Zm-2.476,0h-1.238v-.206h1.238Zm-2.476,0h-1.238v-.206h1.238Zm-2.476,0h-1.238v-.206H267.1Zm-2.476,0H263.39v-.206h1.238Zm-2.476,0h-1.238v-.206h1.238Zm-2.476,0h-1.238v-.206h1.238Zm-2.476,0h-1.238v-.206H257.2Zm-2.476,0h-1.238v-.206h1.238Zm-2.476,0h-1.238v-.206h1.238Zm-2.476,0h-1.238v-.206h1.238Zm-2.476,0h-1.238v-.206H247.3Zm-2.476,0h-1.238v-.206h1.238Zm-2.476,0H241.1v-.206h1.238Zm-2.476,0h-1.238v-.206h1.238Zm-2.476,0h-1.238v-.206h1.238Zm-2.476,0h-1.238v-.206h1.238Zm-2.476,0H231.2v-.206h1.238Zm-2.476,0h-1.238v-.206h1.238Zm-2.476,0h-1.238v-.206h1.238Z" transform="translate(-219.243 -443.091)" fill="#e6e6e6"/><rect width="0.617" height="0.206" transform="translate(83.78 27.118)" fill="#e6e6e6"/><rect width="0.617" height="0.206" transform="translate(5.135 25.652)" fill="#e6e6e6"/><path d="M301.772,456.415h-1.238v-.206h1.238Zm-2.476,0h-1.238v-.206H299.3Zm-2.476,0h-1.238v-.206h1.238Zm-2.476,0h-1.238v-.206h1.238Zm-2.476,0h-1.238v-.206h1.238Zm-2.476,0h-1.238v-.206h1.238Zm-2.476,0h-1.238v-.206h1.238Zm-2.476,0H283.2v-.206h1.238Zm-2.476,0h-1.238v-.206h1.238Zm-2.476,0h-1.238v-.206h1.238Zm-2.476,0h-1.238v-.206h1.238Zm-2.476,0H273.3v-.206h1.238Zm-2.476,0h-1.238v-.206h1.238Zm-2.476,0h-1.238v-.206h1.238Zm-2.476,0h-1.238v-.206H267.1Zm-2.476,0H263.39v-.206h1.238Zm-2.476,0h-1.238v-.206h1.238Zm-2.476,0h-1.238v-.206h1.238Zm-2.476,0h-1.238v-.206H257.2Zm-2.476,0h-1.238v-.206h1.238Zm-2.476,0h-1.238v-.206h1.238Zm-2.476,0h-1.238v-.206h1.238Zm-2.476,0h-1.238v-.206H247.3Zm-2.476,0h-1.238v-.206h1.238Zm-2.476,0H241.1v-.206h1.238Zm-2.476,0h-1.238v-.206h1.238Zm-2.476,0h-1.238v-.206h1.238Zm-2.476,0h-1.238v-.206h1.238Zm-2.476,0H231.2v-.206h1.238Zm-2.476,0h-1.238v-.206h1.238Zm-2.476,0h-1.238v-.206h1.238Z" transform="translate(-219.243 -430.557)" fill="#e6e6e6"/><rect width="0.617" height="0.206" transform="translate(83.78 25.652)" fill="#e6e6e6"/><rect width="0.617" height="0.206" transform="translate(5.135 22.615)" fill="#e6e6e6"/><path d="M301.772,427.415h-1.238v-.206h1.238Zm-2.476,0h-1.238v-.206H299.3Zm-2.476,0h-1.238v-.206h1.238Zm-2.476,0h-1.238v-.206h1.238Zm-2.476,0h-1.238v-.206h1.238Zm-2.476,0h-1.238v-.206h1.238Zm-2.476,0h-1.238v-.206h1.238Zm-2.476,0H283.2v-.206h1.238Zm-2.476,0h-1.238v-.206h1.238Zm-2.476,0h-1.238v-.206h1.238Zm-2.476,0h-1.238v-.206h1.238Zm-2.476,0H273.3v-.206h1.238Zm-2.476,0h-1.238v-.206h1.238Zm-2.476,0h-1.238v-.206h1.238Zm-2.476,0h-1.238v-.206H267.1Zm-2.476,0H263.39v-.206h1.238Zm-2.476,0h-1.238v-.206h1.238Zm-2.476,0h-1.238v-.206h1.238Zm-2.476,0h-1.238v-.206H257.2Zm-2.476,0h-1.238v-.206h1.238Zm-2.476,0h-1.238v-.206h1.238Zm-2.476,0h-1.238v-.206h1.238Zm-2.476,0h-1.238v-.206H247.3Zm-2.476,0h-1.238v-.206h1.238Zm-2.476,0H241.1v-.206h1.238Zm-2.476,0h-1.238v-.206h1.238Zm-2.476,0h-1.238v-.206h1.238Zm-2.476,0h-1.238v-.206h1.238Zm-2.476,0H231.2v-.206h1.238Zm-2.476,0h-1.238v-.206h1.238Zm-2.476,0h-1.238v-.206h1.238Z" transform="translate(-219.243 -404.594)" fill="#e6e6e6"/><rect width="0.617" height="0.206" transform="translate(83.78 22.615)" fill="#e6e6e6"/><rect width="0.617" height="0.206" transform="translate(5.135 20.521)" fill="#e6e6e6"/><path d="M301.772,407.415h-1.238v-.206h1.238Zm-2.476,0h-1.238v-.206H299.3Zm-2.476,0h-1.238v-.206h1.238Zm-2.476,0h-1.238v-.206h1.238Zm-2.476,0h-1.238v-.206h1.238Zm-2.476,0h-1.238v-.206h1.238Zm-2.476,0h-1.238v-.206h1.238Zm-2.476,0H283.2v-.206h1.238Zm-2.476,0h-1.238v-.206h1.238Zm-2.476,0h-1.238v-.206h1.238Zm-2.476,0h-1.238v-.206h1.238Zm-2.476,0H273.3v-.206h1.238Zm-2.476,0h-1.238v-.206h1.238Zm-2.476,0h-1.238v-.206h1.238Zm-2.476,0h-1.238v-.206H267.1Zm-2.476,0H263.39v-.206h1.238Zm-2.476,0h-1.238v-.206h1.238Zm-2.476,0h-1.238v-.206h1.238Zm-2.476,0h-1.238v-.206H257.2Zm-2.476,0h-1.238v-.206h1.238Zm-2.476,0h-1.238v-.206h1.238Zm-2.476,0h-1.238v-.206h1.238Zm-2.476,0h-1.238v-.206H247.3Zm-2.476,0h-1.238v-.206h1.238Zm-2.476,0H241.1v-.206h1.238Zm-2.476,0h-1.238v-.206h1.238Zm-2.476,0h-1.238v-.206h1.238Zm-2.476,0h-1.238v-.206h1.238Zm-2.476,0H231.2v-.206h1.238Zm-2.476,0h-1.238v-.206h1.238Zm-2.476,0h-1.238v-.206h1.238Z" transform="translate(-219.243 -386.688)" fill="#e6e6e6"/><rect width="0.617" height="0.206" transform="translate(83.78 20.521)" fill="#e6e6e6"/><rect width="0.617" height="0.206" transform="translate(5.135 16.019)" fill="#e6e6e6"/><path d="M301.772,364.415h-1.238v-.206h1.238Zm-2.476,0h-1.238v-.206H299.3Zm-2.476,0h-1.238v-.206h1.238Zm-2.476,0h-1.238v-.206h1.238Zm-2.476,0h-1.238v-.206h1.238Zm-2.476,0h-1.238v-.206h1.238Zm-2.476,0h-1.238v-.206h1.238Zm-2.476,0H283.2v-.206h1.238Zm-2.476,0h-1.238v-.206h1.238Zm-2.476,0h-1.238v-.206h1.238Zm-2.476,0h-1.238v-.206h1.238Zm-2.476,0H273.3v-.206h1.238Zm-2.476,0h-1.238v-.206h1.238Zm-2.476,0h-1.238v-.206h1.238Zm-2.476,0h-1.238v-.206H267.1Zm-2.476,0H263.39v-.206h1.238Zm-2.476,0h-1.238v-.206h1.238Zm-2.476,0h-1.238v-.206h1.238Zm-2.476,0h-1.238v-.206H257.2Zm-2.476,0h-1.238v-.206h1.238Zm-2.476,0h-1.238v-.206h1.238Zm-2.476,0h-1.238v-.206h1.238Zm-2.476,0h-1.238v-.206H247.3Zm-2.476,0h-1.238v-.206h1.238Zm-2.476,0H241.1v-.206h1.238Zm-2.476,0h-1.238v-.206h1.238Zm-2.476,0h-1.238v-.206h1.238Zm-2.476,0h-1.238v-.206h1.238Zm-2.476,0H231.2v-.206h1.238Zm-2.476,0h-1.238v-.206h1.238Zm-2.476,0h-1.238v-.206h1.238Z" transform="translate(-219.243 -348.19)" fill="#e6e6e6"/><rect width="0.617" height="0.206" transform="translate(83.78 16.019)" fill="#e6e6e6"/><path d="M400.913,257.582a5.57,5.57,0,1,1-1.631-3.963A5.595,5.595,0,0,1,400.913,257.582Z" transform="translate(-366.167 -247.798)" fill="#f2f2f2"/><path d="M420.6,271.1h0l-.028.05a1.776,1.776,0,0,0-.417-1.813,2.765,2.765,0,0,0-1.652-.75,2.683,2.683,0,0,0-1.335.1,3.454,3.454,0,0,0-1.477,1.356,1.479,1.479,0,0,0-.338.885,1.919,1.919,0,0,0,.343.816,1.049,1.049,0,0,1,.164.856,1.681,1.681,0,0,1-.3.424.568.568,0,0,0-.145.493.4.4,0,0,0,.3.26,1.059,1.059,0,0,0,.4-.009l3.43-.518A1.462,1.462,0,0,0,420.6,271.1Z" transform="translate(-389.171 -262.652)" fill="#2f2e41"/><circle cx="1.677" cy="1.677" r="1.677" transform="translate(27.198 7.22)" fill="#ffb9b9"/><path d="M416.7,321.732a5.593,5.593,0,0,1-7.827.566l.48-1.339a1.44,1.44,0,0,1,1.223-.84l.305-.019.728-.628s1.961-.07,1.932-.1l1.188.715v0l.467.029a1.439,1.439,0,0,1,1.223.84Z" transform="translate(-383.36 -308.026)" fill="#f5f5f5"/><path d="M423.474,278.048c-.043-.229-.277-.334-.477-.384a4.6,4.6,0,0,0-1.777-.1,1.943,1.943,0,0,0-1.189.535,1.6,1.6,0,0,0-.4,1.03,1.226,1.226,0,0,0,.147.654.606.606,0,0,0,.5.325l.02.07a3.052,3.052,0,0,0,2.116-1.418,1.817,1.817,0,0,1-.531.857,3.306,3.306,0,0,0,1.427-1.1A.623.623,0,0,0,423.474,278.048Z" transform="translate(-393.004 -270.707)" fill="#2f2e41"/><circle cx="5.595" cy="5.595" r="5.595" transform="translate(70.647 5.963)" fill="#f2f2f2"/><circle cx="0.79" cy="0.79" r="0.79" transform="translate(73.916 7.878)" fill="#2f2e41"/><circle cx="2.001" cy="2.001" r="2.001" transform="translate(73.968 8.63)" fill="#2f2e41"/><circle cx="1.626" cy="1.626" r="1.626" transform="translate(74.509 9.392)" fill="#9e616a"/><path d="M893.015,298.126a1.863,1.863,0,0,0-2.832,1.626,4.323,4.323,0,0,0,2.583.05l.209-.511.123.511a.753.753,0,0,0,.809,0A1.9,1.9,0,0,0,893.015,298.126Z" transform="translate(-815.775 -288.776)" fill="#2f2e41"/><path d="M864.419,273.571a1.616,1.616,0,0,0-1.686.26,1.828,1.828,0,0,0-.583,1.626,4.2,4.2,0,0,0,.8,1.639,3.154,3.154,0,0,1,.671,1.682,1.667,1.667,0,0,1-1.664,1.667,3.755,3.755,0,0,0,1.623.424,1.285,1.285,0,0,0,1.246-.945,2.128,2.128,0,0,0-.295-1.164,8.235,8.235,0,0,1-.575-1.894,1.9,1.9,0,0,1,.011-.938,1.1,1.1,0,0,1,1.094-.723l.186-.168A1.45,1.45,0,0,0,864.419,273.571Z" transform="translate(-790.304 -267.047)" fill="#2f2e41"/><path d="M880.662,339.466a5.593,5.593,0,0,1-7.827.566l.48-1.339a1.44,1.44,0,0,1,1.223-.84l.305-.019.728-.628s1.961-.07,1.932-.1l1.188.715v0l.467.029a1.439,1.439,0,0,1,1.223.84Z" transform="translate(-800.211 -323.9)" fill="#f5f5f5"/><path d="M709.913,216.831a5.58,5.58,0,1,1-1.627-3.963A5.595,5.595,0,0,1,709.913,216.831Z" transform="translate(-643.742 -211.226)" fill="#f2f2f2"/><path d="M727.078,232.756a2.513,2.513,0,0,1,1.485-1.663,2.583,2.583,0,0,1,2.34.676c1,1,1.245,4.423.557,5.505-.137-.007-.609-.013-.747-.018l-.2-.652v.646q-.331-.01-.667-.014a2.9,2.9,0,0,1-2.864-2.829A6.653,6.653,0,0,1,727.078,232.756Z" transform="translate(-669.08 -228.981)" fill="#2f2e41"/><circle cx="1.594" cy="1.594" r="1.594" transform="translate(58.915 3.029)" fill="#9e616a"/><path d="M738.962,234.564l1.836-.919h0a2.308,2.308,0,0,1,1.352,1.912l.046.548-.769-.2-.084-.7-.131.646-.355-.09,0-1.088-.355,1.087-1.267-.291Z" transform="translate(-679.831 -231.341)" fill="#2f2e41"/><path d="M725.222,281.052a5.593,5.593,0,0,1-7.827.566l.48-1.339a1.44,1.44,0,0,1,1.223-.84l.305-.019.728-.628s1.961-.07,1.932-.1l1.188.715v0l.467.029a1.439,1.439,0,0,1,1.223.84Z" transform="translate(-660.49 -271.755)" fill="#f5f5f5"/><circle cx="5.595" cy="5.595" r="5.595" transform="translate(39.763 9.265)" fill="#f2f2f2"/><circle cx="1.786" cy="1.786" r="1.786" transform="translate(43.419 11.999)" fill="#ffb6b6"/><path d="M576.021,369.466a5.593,5.593,0,0,1-7.827.566l.48-1.339a1.44,1.44,0,0,1,1.223-.84l.305-.019.728-.628s1.961-.07,1.932-.1l1.188.715v0l.467.029a1.439,1.439,0,0,1,1.223.84Z" transform="translate(-526.469 -350.754)" fill="#f5f5f5"/><path d="M587.756,318.315a2.3,2.3,0,0,0-.964-1.312,1.568,1.568,0,0,0-1.268-.235,1.032,1.032,0,0,0-.749.994.436.436,0,0,0-.44.136,1.009,1.009,0,0,0-.216.437,2.779,2.779,0,0,0,.026,1.538l-.008.072a.7.7,0,0,0,.462-.4c.1-.189.154-.4.26-.584a.634.634,0,0,1,.492-.355l-.018.321.542-.279-.129.308.473-.2-.053.3a.7.7,0,0,1,.969-.313.935.935,0,0,1,.382.538,2.833,2.833,0,0,1,.092.671A2.348,2.348,0,0,0,587.756,318.315Z" transform="translate(-540.668 -305.658)" fill="#2f2e41"/><circle cx="5.595" cy="5.595" r="5.595" transform="translate(7.794 11.87)" fill="#f2f2f2"/><circle cx="1.697" cy="1.697" r="1.697" transform="translate(11.569 14.659)" fill="#9e616a"/><path d="M260.181,393.732a5.593,5.593,0,0,1-7.827.566l.48-1.339a1.44,1.44,0,0,1,1.223-.84l.305-.019.728-.628s1.961-.07,1.932-.1l1.188.715v0l.467.029a1.439,1.439,0,0,1,1.223.84Z" transform="translate(-242.667 -372.474)" fill="#f5f5f5"/><path d="M271.913,374.946l-.01-.028-.02.017Z" transform="translate(-260.189 -357.779)" fill="#2f2e41"/><path d="M272.932,345.837a1.22,1.22,0,0,0-.456-.891,1.07,1.07,0,0,1-.279-.252,1.723,1.723,0,0,1-.095-.236.792.792,0,0,0-.835-.428,1.254,1.254,0,0,0-.816.546.555.555,0,0,0-.776.643.4.4,0,0,0-.559.166,1.029,1.029,0,0,0-.059.65,6.139,6.139,0,0,0,.288,1.163.758.758,0,0,0,.137-.645c-.021-.237-.009-.525.2-.642s.442.011.663.075a1.253,1.253,0,0,0,1.036-.163,3.26,3.26,0,0,1,.341-.237.4.4,0,0,1,.4-.007.554.554,0,0,1,.184.323l.255.863A1.22,1.22,0,0,0,272.932,345.837Z" transform="translate(-257.633 -330.101)" fill="#2f2e41"/><rect width="0.534" height="15.653" transform="translate(12.874 28.003)" fill="#3f3d56"/><rect width="0.534" height="22.964" transform="translate(28.595 20.692)" fill="#3f3d56"/><rect width="0.534" height="18.158" transform="translate(44.469 25.499)" fill="#3f3d56"/><rect width="0.534" height="26.97" transform="translate(60.342 16.687)" fill="#3f3d56"/><rect width="0.534" height="20.828" transform="translate(76.092 22.828)" fill="#3f3d56"/><circle cx="1.634" cy="1.634" r="1.634" transform="translate(27.266 18.879)" fill="#f5f5f5"/><circle cx="1.634" cy="1.634" r="1.634" transform="translate(59.003 14.521)" fill="#f5f5f5"/><circle cx="1.634" cy="1.634" r="1.634" transform="translate(43.135 23.51)" fill="#f5f5f5"/><circle cx="1.634" cy="1.634" r="1.634" transform="translate(11.507 25.961)" fill="#f5f5f5"/><circle cx="1.634" cy="1.634" r="1.634" transform="translate(74.758 20.514)" fill="#f5f5f5"/><path d="M258.25,625.484H172.343l-.539.272a.271.271,0,0,0,.27.272H258.25a.272.272,0,0,0,0-.545Z" transform="translate(-170.395 -581.989)" fill="#3f3d56"/><circle cx="1.634" cy="1.634" r="1.634" transform="translate(0 42.005)" fill="#3f3d56"/><circle cx="1.634" cy="1.634" r="1.634" transform="translate(11.511 46.732)" fill="#e6e6e6"/><circle cx="1.634" cy="1.634" r="1.634" transform="translate(27.282 46.732)" fill="#e6e6e6"/><circle cx="1.634" cy="1.634" r="1.634" transform="translate(43.163 46.732)" fill="#e6e6e6"/><circle cx="1.634" cy="1.634" r="1.634" transform="translate(58.941 46.732)" fill="#e6e6e6"/><circle cx="1.634" cy="1.634" r="1.634" transform="translate(74.707 46.732)" fill="#e6e6e6"/><circle cx="1.634" cy="1.634" r="1.634" transform="translate(86.732 42.005)" fill="#3f3d56"/></g><g transform="matrix(1, 0, 0, 1, 1093.24, 527.35)" filter="url(#a)"><text transform="translate(21.38 42.57)" fill="#e56464" font-size="14" font-family="Vivaldii, Vivaldi"><tspan x="0" y="0">H</tspan><tspan y="0" font-size="23">..</tspan><tspan y="0">R</tspan></text></g></g></svg>